<?xml version="1.0" encoding="UTF-8" standalone="no"?>
<!-- Generator: Adobe Illustrator 20.1.0, SVG Export Plug-In . SVG Version: 6.00 Build 0)  -->

<svg
   xmlns:dc="http://purl.org/dc/elements/1.1/"
   xmlns:cc="http://creativecommons.org/ns#"
   xmlns:rdf="http://www.w3.org/1999/02/22-rdf-syntax-ns#"
   xmlns:svg="http://www.w3.org/2000/svg"
   xmlns="http://www.w3.org/2000/svg"
   xmlns:xlink="http://www.w3.org/1999/xlink"
   xmlns:sodipodi="http://sodipodi.sourceforge.net/DTD/sodipodi-0.dtd"
   xmlns:inkscape="http://www.inkscape.org/namespaces/inkscape"
   version="1.1"
   id="Layer_1"
   x="0px"
   y="0px"
   viewBox="0 0 480 92"
   style="enable-background:new 0 0 480 92;"
   xml:space="preserve"
   inkscape:version="0.91 r13725"
   sodipodi:docname="logo.svg"><metadata
     id="metadata76"><rdf:RDF><cc:Work
         rdf:about=""><dc:format>image/svg+xml</dc:format><dc:type
           rdf:resource="http://purl.org/dc/dcmitype/StillImage" /></cc:Work></rdf:RDF></metadata><defs
     id="defs74"><linearGradient
       gradientTransform="matrix(0,-20.3286,-20.5163,0,12509.781,174.8561)"
       y2="607.90057"
       x2="8.2565002"
       y1="607.90057"
       x1="4.4203"
       gradientUnits="userSpaceOnUse"
       id="SVGID_5_"><stop
         id="stop36"
         style="stop-color:#EED86C"
         offset="0" /><stop
         id="stop38"
         style="stop-color:#EED86C"
         offset="1.000000e-02" /><stop
         id="stop40"
         style="stop-color:#DDC55E"
         offset="2.465684e-02" /><stop
         id="stop42"
         style="stop-color:#BE9E40"
         offset="6.812344e-02" /><stop
         id="stop44"
         style="stop-color:#A9862F"
         offset="0.1096" /><stop
         id="stop46"
         style="stop-color:#9D7827"
         offset="0.1479" /><stop
         id="stop48"
         style="stop-color:#997424"
         offset="0.18" /><stop
         id="stop50"
         style="stop-color:#EDD86D"
         offset="0.51" /><stop
         id="stop52"
         style="stop-color:#E5CE66"
         offset="0.5753" /><stop
         id="stop54"
         style="stop-color:#D3B555"
         offset="0.6816" /><stop
         id="stop56"
         style="stop-color:#CEAE50"
         offset="0.71" /><stop
         id="stop58"
         style="stop-color:#8F6C23"
         offset="1" /></linearGradient><clipPath
       id="SVGID_4_"><use
         height="100%"
         width="100%"
         y="0"
         x="0"
         id="use33"
         style="overflow:visible"
         xlink:href="#SVGID_3_" /></clipPath></defs><sodipodi:namedview
     pagecolor="#ffffff"
     bordercolor="#666666"
     borderopacity="1"
     objecttolerance="10"
     gridtolerance="10"
     guidetolerance="10"
     inkscape:pageopacity="0"
     inkscape:pageshadow="2"
     inkscape:window-width="1366"
     inkscape:window-height="706"
     id="namedview72"
     showgrid="false"
     inkscape:zoom="2.0565022"
     inkscape:cx="255.40968"
     inkscape:cy="43.743008"
     inkscape:window-x="1358"
     inkscape:window-y="133"
     inkscape:window-maximized="1"
     inkscape:current-layer="Layer_1" /><style
     type="text/css"
     id="style3">
	.st0{fill:#FFFFFF;}
	.st1{clip-path:url(#SVGID_2_);fill:#FFFFFF;}
	.st2{clip-path:url(#SVGID_4_);fill:url(#SVGID_5_);}
	.st3{clip-path:url(#SVGID_7_);fill:#FFFFFF;}
</style><path
     style="fill:#000000"
     inkscape:connector-curvature="0"
     id="path7"
     d="m 115.8,53.2 18.4,0 -9.2,-25 -9.2,25 z m 30.1,31.8 -6.8,-18.4 -28.2,0 -6.8,18.4 -15.2,0 28.8,-78 14.5,0 28.9,78 -15.2,0 z"
     class="st0" /><path
     style="fill:#000000"
     inkscape:connector-curvature="0"
     id="path9"
     d="m 319.8,53.2 18.4,0 -9.2,-25 -9.2,25 z m 30.1,31.8 -6.8,-18.4 -28.2,0 -6.8,18.4 -15.2,0 28.8,-78 14.5,0 28.9,78 -15.2,0 z"
     class="st0" /><polygon
     style="fill:#000000"
     id="polygon11"
     points="183.4,85 168.3,85 168.3,7 179.8,7 220.2,56.6 220.2,7 235.3,7 235.3,85 224.8,85 183.4,34.1 "
     class="st0" /><polygon
     style="fill:#000000"
     id="polygon13"
     points="244.4,20.3 244.4,7 301.1,7 301.1,20.3 280.3,20.3 280.3,85 265.1,85 265.1,20.3 "
     class="st0" /><g
     id="g15"
     style="fill:#000000"><defs
       id="defs17"><rect
         height="289.79999"
         width="638.90002"
         y="-98.900002"
         x="-88.900002"
         id="SVGID_1_" /></defs><clipPath
       id="SVGID_2_"><use
         height="100%"
         width="100%"
         y="0"
         x="0"
         id="use21"
         style="overflow:visible"
         xlink:href="#SVGID_1_" /></clipPath><path
       style="fill:#000000"
       inkscape:connector-curvature="0"
       clip-path="url(#SVGID_2_)"
       id="path23"
       d="M 439.3,85 414.7,51.3 c 3.1,-1.2 5.5,-2.8 7.6,-4.9 3.9,-4 6.2,-10 6.2,-16.2 C 428.5,24 426.2,18 422.3,14 417.9,9.4 412,7 401.8,7 l -29.6,0 0,78 15.2,0 0,-31.8 12.4,0 23,31.8 16.5,0 z m -51.8,-64.6 13.7,0 c 5.2,0 7.8,1.2 9.6,3.1 1.7,1.8 2.6,4.1 2.6,6.7 0,2.6 -0.9,4.8 -2.6,6.6 -1.8,1.9 -4.4,3.1 -9.6,3.1 l -13.7,0 0,-19.5 z"
       class="st1" /><polygon
       style="fill:#000000"
       clip-path="url(#SVGID_2_)"
       id="polygon25"
       points="40.6,46 68.8,85 85.3,85 57.1,46 85.3,7 68.8,7 "
       class="st1" /></g><g
     id="g62"
     style="fill:#000000"><defs
       id="defs64"><rect
         height="289.79999"
         width="638.90002"
         y="-98.900002"
         x="-88.900002"
         id="SVGID_6_" /></defs><clipPath
       id="SVGID_7_"><use
         height="100%"
         width="100%"
         y="0"
         x="0"
         id="use68"
         style="overflow:visible"
         xlink:href="#SVGID_6_" /></clipPath><rect
       style="fill:#000000"
       clip-path="url(#SVGID_7_)"
       id="rect70"
       height="78"
       width="13.9"
       class="st3"
       y="7"
       x="21.700001" /></g><g
     transform="translate(-0.02646987,-0.19494194)"
     id="g27"><defs
       id="defs29"><rect
         height="78"
         width="4.5999999"
         y="7"
         x="35.599998"
         id="SVGID_3_" /></defs><clipPath
       id="clipPath3466"><use
         height="100%"
         width="100%"
         y="0"
         x="0"
         id="use3468"
         style="overflow:visible"
         xlink:href="#SVGID_3_" /></clipPath><linearGradient
       gradientTransform="matrix(0,-20.3286,-20.5163,0,12509.781,174.8561)"
       y2="607.90057"
       x2="8.2565002"
       y1="607.90057"
       x1="4.4203"
       gradientUnits="userSpaceOnUse"
       id="linearGradient3470"><stop
         id="stop3472"
         style="stop-color:#EED86C"
         offset="0" /><stop
         id="stop3474"
         style="stop-color:#EED86C"
         offset="1.000000e-02" /><stop
         id="stop3476"
         style="stop-color:#DDC55E"
         offset="2.465684e-02" /><stop
         id="stop3478"
         style="stop-color:#BE9E40"
         offset="6.812344e-02" /><stop
         id="stop3480"
         style="stop-color:#A9862F"
         offset="0.1096" /><stop
         id="stop3482"
         style="stop-color:#9D7827"
         offset="0.1479" /><stop
         id="stop3484"
         style="stop-color:#997424"
         offset="0.18" /><stop
         id="stop3486"
         style="stop-color:#EDD86D"
         offset="0.51" /><stop
         id="stop3488"
         style="stop-color:#E5CE66"
         offset="0.5753" /><stop
         id="stop3490"
         style="stop-color:#D3B555"
         offset="0.6816" /><stop
         id="stop3492"
         style="stop-color:#CEAE50"
         offset="0.71" /><stop
         id="stop3494"
         style="stop-color:#8F6C23"
         offset="1" /></linearGradient><rect
       style="fill:url(#SVGID_5_)"
       clip-path="url(#SVGID_4_)"
       id="rect60"
       height="78"
       width="4.5999999"
       class="st2"
       y="7"
       x="35.599998" /></g></svg>